<svg xmlns="http://www.w3.org/2000/svg" width="294.118" height="83.919" viewBox="0 0 294.118 83.919"><defs><style>.a{opacity:0.16;}.b,.c,.l{fill:#0ba29c;}.c,.d,.e,.g,.i,.k{fill-rule:evenodd;}.d{fill:#3d3e3d;}.e{fill:#fff;}.f,.g,.o{fill:#999;}.h,.i,.m{fill:#fbb03b;}.j,.k,.n{fill:#d4145a;}.l,.m,.n,.o{font-size:14px;font-family:STHeitiTC-Medium, Heiti TC;font-weight:500;}</style></defs><g transform="translate(0 0.192)"><ellipse class="a" cx="14.961" cy="3.686" rx="14.961" ry="3.686" transform="translate(16.316 76.355)"/><path class="b" d="M302.947,196.2l8.431-39.381A3.18,3.18,0,0,0,308.233,153H291.371a3.18,3.18,0,0,0-3.145,3.821l8.431,39.381A3.224,3.224,0,0,0,302.947,196.2Z" transform="translate(-268.551 -119.297)"/><path class="c" d="M282.906,150.5c17.186,0,31.2-13.814,31.2-30.751S300.092,89,282.906,89s-31.2,13.813-31.2,30.751S265.717,150.5,282.906,150.5Z" transform="translate(-251.575 -89)"/><g transform="translate(15.464 19.336)"><path class="d" d="M282.245,129.97a.959.959,0,0,1-1.24.523.936.936,0,0,1-.53-1.222,5.7,5.7,0,0,1,2.114-2.584,5.795,5.795,0,0,1,6.427.011h0a5.679,5.679,0,0,1,2.111,2.6.938.938,0,0,1-.536,1.223.96.96,0,0,1-1.24-.53A3.813,3.813,0,0,0,285.8,127.6a3.848,3.848,0,0,0-2.139.643A3.79,3.79,0,0,0,282.245,129.97Z" transform="translate(-280.406 -125.72)"/><path class="d" d="M321.434,129.97a.961.961,0,0,1-1.241.523.936.936,0,0,1-.53-1.222,5.693,5.693,0,0,1,2.114-2.584,5.795,5.795,0,0,1,6.428.011h0a5.67,5.67,0,0,1,2.113,2.6.938.938,0,0,1-.539,1.223.961.961,0,0,1-1.24-.53,3.814,3.814,0,0,0-3.558-2.385,3.848,3.848,0,0,0-2.139.643A3.787,3.787,0,0,0,321.434,129.97Z" transform="translate(-298.655 -125.72)"/></g><path class="e" d="M343.634,138.918s8.45-2.842,11.151-9.639c0,0,1.371,1.183,1.1,4.448,0,0-2.8,5.966-11.373,8.736l-2.178-.555Z" transform="translate(-293.782 -108.069)"/><path class="e" d="M339.188,162.851l3.067-.688s8.425-3.286,10.938-8.4a8.109,8.109,0,0,1-1.565,6.82c-2.6,3.65-10.4,7.6-15.6,7.252Z" transform="translate(-290.843 -119.661)"/><path class="e" d="M264.526,138.918s-8.452-2.842-11.15-9.639c0,0-1.373,1.183-1.1,4.448,0,0,2.8,5.966,11.37,8.736l2.18-.555Z" transform="translate(-251.824 -108.069)"/><path class="e" d="M265.671,162.851l-3.066-.688s-8.424-3.286-10.937-8.4a8.108,8.108,0,0,0,1.564,6.82c2.6,3.65,10.4,7.6,15.6,7.252Z" transform="translate(-251.465 -119.661)"/><path class="e" d="M307.49,142.712c3.424.412,4.9,3.62,5.137,8.391a49.041,49.041,0,0,1-.354,9.669c-.608,2.791-2,5.16-5.016,5.814-6.493,1.411-23.175,1.411-29.671,0-2.827-.614-4.229-2.737-4.895-5.3-.67-2.588-.592-7.783-.474-10.181.232-4.771,1.713-7.979,5.137-8.391C282.588,142.084,302.255,142.084,307.49,142.712Z" transform="translate(-261.091 -114.205)"/></g><g transform="translate(231.565 0.192)"><ellipse class="a" cx="14.961" cy="3.686" rx="14.961" ry="3.686" transform="translate(16.117 76.355)"/><path class="f" d="M736.366,196.2l8.431-39.381A3.18,3.18,0,0,0,741.652,153H724.79a3.18,3.18,0,0,0-3.145,3.821l8.431,39.381A3.224,3.224,0,0,0,736.366,196.2Z" transform="translate(-701.944 -119.297)"/><path class="g" d="M716.277,150.5c17.185,0,31.2-13.814,31.2-30.751S733.463,89,716.277,89s-31.2,13.813-31.2,30.751S699.089,150.5,716.277,150.5Z" transform="translate(-684.947 -89)"/><path class="e" d="M777.006,138.918s8.45-2.842,11.15-9.639c0,0,1.372,1.183,1.1,4.448,0,0-2.8,5.966-11.373,8.736l-2.179-.555Z" transform="translate(-727.153 -108.069)"/><path class="e" d="M772.56,162.851l3.066-.688s8.426-3.286,10.938-8.4a8.111,8.111,0,0,1-1.565,6.82c-2.6,3.65-10.4,7.6-15.6,7.252Z" transform="translate(-724.214 -119.661)"/><path class="e" d="M697.9,138.918s-8.451-2.842-11.15-9.639c0,0-1.373,1.183-1.1,4.448,0,0,2.8,5.966,11.371,8.736l2.18-.555Z" transform="translate(-685.196 -108.069)"/><path class="e" d="M699.042,162.851l-3.066-.688s-8.425-3.286-10.937-8.4a8.11,8.11,0,0,0,1.565,6.82c2.6,3.65,10.4,7.6,15.6,7.252Z" transform="translate(-684.836 -119.661)"/><path class="e" d="M740.861,142.712c3.425.412,4.9,3.62,5.138,8.391a49.039,49.039,0,0,1-.354,9.669c-.607,2.791-2,5.16-5.016,5.814-6.493,1.411-23.175,1.411-29.672,0-2.827-.614-4.229-2.737-4.894-5.3-.67-2.588-.592-7.783-.475-10.181.233-4.771,1.713-7.979,5.137-8.391C715.959,142.084,735.626,142.084,740.861,142.712Z" transform="translate(-694.463 -114.205)"/><g transform="translate(15.72 15.135)"><path class="d" d="M714.508,119.186a.837.837,0,0,1,0-1.2.867.867,0,0,1,1.214,0l3.028,2.985,3.029-2.985a.867.867,0,0,1,1.214,0,.838.838,0,0,1,0,1.2l-3.029,2.984,3.029,2.986a.837.837,0,0,1,0,1.2.868.868,0,0,1-1.214,0l-3.029-2.984-3.028,2.984a.868.868,0,0,1-1.214,0,.836.836,0,0,1,0-1.2l3.028-2.986Z" transform="translate(-714.257 -117.742)"/><path class="d" d="M756.3,119.186a.837.837,0,0,1,0-1.2.867.867,0,0,1,1.214,0l3.029,2.985,3.029-2.985a.867.867,0,0,1,1.214,0,.838.838,0,0,1,0,1.2l-3.029,2.984,3.029,2.986a.837.837,0,0,1,0,1.2.868.868,0,0,1-1.214,0l-3.029-2.984-3.029,2.984a.868.868,0,0,1-1.214,0,.836.836,0,0,1,0-1.2l3.029-2.986Z" transform="translate(-733.719 -117.742)"/></g></g><g transform="translate(77.414 0.527)"><ellipse class="a" cx="14.961" cy="3.686" rx="14.961" ry="3.686" transform="translate(16.38 76.021)"/><path class="h" d="M447.875,196.835l8.431-39.381a3.18,3.18,0,0,0-3.145-3.822H436.3a3.18,3.18,0,0,0-3.145,3.822l8.431,39.381A3.224,3.224,0,0,0,447.875,196.835Z" transform="translate(-413.453 -119.932)"/><g transform="translate(0)"><path class="i" d="M427.787,151.138c17.185,0,31.2-13.814,31.2-30.752s-14.017-30.751-31.2-30.751-31.2,13.814-31.2,30.751S410.6,151.138,427.787,151.138Z" transform="translate(-396.456 -89.635)"/><g transform="translate(15.465 19.336)"><path class="d" d="M473.429,126.97a.959.959,0,0,1,1.24-.523.935.935,0,0,1,.53,1.222,5.693,5.693,0,0,1-2.114,2.584,5.795,5.795,0,0,1-6.427-.011h0a5.681,5.681,0,0,1-2.111-2.6.938.938,0,0,1,.536-1.223.96.96,0,0,1,1.24.53,3.813,3.813,0,0,0,3.558,2.385,3.846,3.846,0,0,0,2.139-.643A3.79,3.79,0,0,0,473.429,126.97Z" transform="translate(-443.536 -126.355)"/><path class="d" d="M434.24,126.97a.961.961,0,0,1,1.242-.523.937.937,0,0,1,.53,1.222,5.7,5.7,0,0,1-2.114,2.584,5.795,5.795,0,0,1-6.428-.011h0a5.665,5.665,0,0,1-2.113-2.6.938.938,0,0,1,.538-1.223.961.961,0,0,1,1.24.53,3.814,3.814,0,0,0,3.558,2.385,3.851,3.851,0,0,0,2.139-.643A3.787,3.787,0,0,0,434.24,126.97Z" transform="translate(-425.287 -126.355)"/></g><path class="e" d="M488.515,139.553s8.451-2.843,11.151-9.639c0,0,1.372,1.183,1.1,4.448,0,0-2.8,5.966-11.373,8.736l-2.178-.554Z" transform="translate(-438.662 -108.704)"/><path class="e" d="M484.069,163.487l3.067-.687s8.425-3.287,10.938-8.4a8.106,8.106,0,0,1-1.564,6.819c-2.6,3.65-10.4,7.6-15.6,7.252Z" transform="translate(-435.723 -120.296)"/><path class="e" d="M409.406,139.553s-8.451-2.843-11.15-9.639c0,0-1.373,1.183-1.1,4.448,0,0,2.8,5.966,11.371,8.736l2.179-.554Z" transform="translate(-396.705 -108.704)"/><path class="e" d="M410.551,163.487l-3.066-.687s-8.425-3.287-10.937-8.4a8.108,8.108,0,0,0,1.565,6.819c2.6,3.65,10.4,7.6,15.6,7.252Z" transform="translate(-396.345 -120.296)"/><path class="e" d="M452.371,143.347c3.424.412,4.9,3.62,5.137,8.392a49.042,49.042,0,0,1-.354,9.669c-.608,2.791-2,5.16-5.016,5.813-6.493,1.412-23.175,1.412-29.671,0-2.827-.613-4.229-2.737-4.895-5.3-.67-2.589-.591-7.784-.475-10.181.232-4.771,1.713-7.98,5.138-8.392C427.468,142.719,447.136,142.719,452.371,143.347Z" transform="translate(-405.972 -114.84)"/></g></g><g transform="translate(154.829)"><ellipse class="a" cx="14.961" cy="3.686" rx="14.961" ry="3.686" transform="translate(16.443 76.021)"/><path class="j" d="M592.756,195.835l8.431-39.381a3.18,3.18,0,0,0-3.145-3.821H581.18a3.18,3.18,0,0,0-3.145,3.821l8.431,39.381A3.224,3.224,0,0,0,592.756,195.835Z" transform="translate(-558.334 -118.932)"/><g transform="translate(0)"><path class="k" d="M572.667,150.138c17.185,0,31.2-13.814,31.2-30.752s-14.017-30.751-31.2-30.751-31.2,13.814-31.2,30.751S555.479,150.138,572.667,150.138Z" transform="translate(-541.337 -88.635)"/><g transform="translate(15.464 19.336)"><path class="d" d="M618.31,125.97a.959.959,0,0,1,1.24-.523.935.935,0,0,1,.53,1.222,5.7,5.7,0,0,1-2.114,2.584,5.794,5.794,0,0,1-6.427-.011h0a5.681,5.681,0,0,1-2.111-2.6.938.938,0,0,1,.537-1.223.96.96,0,0,1,1.24.53,3.8,3.8,0,0,0,1.41,1.738,3.882,3.882,0,0,0,4.287,0A3.79,3.79,0,0,0,618.31,125.97Z" transform="translate(-588.416 -125.355)"/><path class="d" d="M579.12,125.97a.961.961,0,0,1,1.241-.523.936.936,0,0,1,.53,1.222,5.694,5.694,0,0,1-2.114,2.584,5.795,5.795,0,0,1-6.427-.011h0a5.67,5.67,0,0,1-2.113-2.6.938.938,0,0,1,.539-1.223.961.961,0,0,1,1.24.53,3.814,3.814,0,0,0,3.558,2.385,3.848,3.848,0,0,0,2.139-.644A3.787,3.787,0,0,0,579.12,125.97Z" transform="translate(-570.167 -125.355)"/></g><path class="e" d="M633.4,138.553s8.451-2.843,11.151-9.639c0,0,1.372,1.183,1.1,4.448,0,0-2.8,5.966-11.373,8.736l-2.179-.554Z" transform="translate(-583.543 -107.704)"/><path class="e" d="M628.95,162.487l3.067-.687s8.425-3.287,10.938-8.4a8.107,8.107,0,0,1-1.565,6.819c-2.6,3.65-10.4,7.6-15.6,7.252Z" transform="translate(-580.604 -119.296)"/><path class="e" d="M554.287,138.553s-8.451-2.843-11.15-9.639c0,0-1.373,1.183-1.1,4.448,0,0,2.8,5.966,11.371,8.736l2.179-.554Z" transform="translate(-541.586 -107.704)"/><path class="e" d="M555.433,162.487l-3.066-.687s-8.425-3.287-10.938-8.4a8.109,8.109,0,0,0,1.565,6.819c2.6,3.65,10.4,7.6,15.6,7.252Z" transform="translate(-541.226 -119.296)"/><path class="e" d="M597.251,142.347c3.425.412,4.9,3.62,5.138,8.392a49.026,49.026,0,0,1-.354,9.669c-.607,2.791-2,5.16-5.016,5.813-6.493,1.412-23.175,1.412-29.672,0-2.827-.613-4.228-2.737-4.894-5.3-.67-2.589-.592-7.784-.475-10.181.232-4.771,1.713-7.98,5.138-8.392C572.349,141.719,592.016,141.719,597.251,142.347Z" transform="translate(-550.853 -113.84)"/></g></g><text class="l" transform="translate(22.498 45.395)"><tspan x="0" y="0">多</tspan></text><text class="m" transform="translate(101.586 45.395)"><tspan x="0" y="0">普</tspan></text><text class="n" transform="translate(179.064 45.395)"><tspan x="0" y="0">少</tspan></text><text class="o" transform="translate(255.8 45.395)"><tspan x="0" y="0">缺</tspan></text></svg>